<svg width="1600" height="900" viewBox="0 0 1600 900" fill="none" xmlns="http://www.w3.org/2000/svg">
<rect width="1600" height="900" fill="#004A8E"/>
<g filter="url(#filter0_f_281_31)">
<path d="M767.509 1383.01C1544.61 1380.18 1887.01 945.117 1885 393L763.913 397.089L767.509 1383.01Z" fill="url(#paint0_radial_281_31)"/>
<path d="M767.509 1383.01C1544.61 1380.18 1887.01 945.117 1885 393L763.913 397.089L767.509 1383.01Z" fill="url(#paint1_radial_281_31)"/>
<path d="M767.509 1383.01C1544.61 1380.18 1887.01 945.117 1885 393L763.913 397.089L767.509 1383.01Z" fill="url(#paint2_radial_281_31)"/>
<path d="M767.509 1383.01C1544.61 1380.18 1887.01 945.117 1885 393L763.913 397.089L767.509 1383.01Z" fill="url(#paint3_radial_281_31)"/>
</g>
<g filter="url(#filter1_f_281_31)">
<path d="M-555.612 981.012C529.963 977.052 1008.12 325.288 1005.1 -502L-561 -496.288L-555.612 981.012Z" fill="url(#paint4_radial_281_31)"/>
<path d="M-555.612 981.012C529.963 977.052 1008.12 325.288 1005.1 -502L-561 -496.288L-555.612 981.012Z" fill="url(#paint5_radial_281_31)"/>
<path d="M-555.612 981.012C529.963 977.052 1008.12 325.288 1005.1 -502L-561 -496.288L-555.612 981.012Z" fill="url(#paint6_radial_281_31)"/>
<path d="M-555.612 981.012C529.963 977.052 1008.12 325.288 1005.1 -502L-561 -496.288L-555.612 981.012Z" fill="url(#paint7_radial_281_31)"/>
</g>
<defs>
<filter id="filter0_f_281_31" x="443.913" y="73" width="1761.1" height="1630.01" filterUnits="userSpaceOnUse" color-interpolation-filters="sRGB">
<feFlood flood-opacity="0" result="BackgroundImageFix"/>
<feBlend mode="normal" in="SourceGraphic" in2="BackgroundImageFix" result="shape"/>
<feGaussianBlur stdDeviation="160" result="effect1_foregroundBlur_281_31"/>
</filter>
<filter id="filter1_f_281_31" x="-881" y="-822" width="2206.12" height="2123.01" filterUnits="userSpaceOnUse" color-interpolation-filters="sRGB">
<feFlood flood-opacity="0" result="BackgroundImageFix"/>
<feBlend mode="normal" in="SourceGraphic" in2="BackgroundImageFix" result="shape"/>
<feGaussianBlur stdDeviation="160" result="effect1_foregroundBlur_281_31"/>
</filter>
<radialGradient id="paint0_radial_281_31" cx="0" cy="0" r="1" gradientUnits="userSpaceOnUse" gradientTransform="translate(1390.79 823.256) rotate(-142.918) scale(407.338 396.753)">
<stop offset="0.15" stop-color="#1E93FF"/>
<stop offset="0.505" stop-color="#6FD0F3"/>
<stop offset="0.82" stop-color="#FF0CFF"/>
<stop offset="1" stop-color="#034C90"/>
</radialGradient>
<radialGradient id="paint1_radial_281_31" cx="0" cy="0" r="1" gradientUnits="userSpaceOnUse" gradientTransform="translate(1390.79 823.256) rotate(-142.918) scale(407.338 396.753)">
<stop offset="0.15" stop-color="#1E93FF"/>
<stop offset="0.505" stop-color="#6FD0F3"/>
<stop offset="0.82" stop-color="#FF0CFF"/>
<stop offset="1" stop-color="#034C90"/>
</radialGradient>
<radialGradient id="paint2_radial_281_31" cx="0" cy="0" r="1" gradientUnits="userSpaceOnUse" gradientTransform="translate(1390.79 823.256) rotate(-142.918) scale(407.338 396.753)">
<stop offset="0.15" stop-color="#1E93FF"/>
<stop offset="0.505" stop-color="#6FD0F3"/>
<stop offset="0.82" stop-color="#FF0CFF"/>
<stop offset="1" stop-color="#034C90"/>
</radialGradient>
<radialGradient id="paint3_radial_281_31" cx="0" cy="0" r="1" gradientUnits="userSpaceOnUse" gradientTransform="translate(1390.79 823.256) rotate(-142.918) scale(407.338 396.753)">
<stop offset="0.15" stop-color="#1E93FF"/>
<stop offset="0.505" stop-color="#6FD0F3"/>
<stop offset="0.82" stop-color="#FF0CFF"/>
<stop offset="1" stop-color="#034C90"/>
</radialGradient>
<radialGradient id="paint4_radial_281_31" cx="0" cy="0" r="1" gradientUnits="userSpaceOnUse" gradientTransform="translate(314.877 142.509) rotate(-140.966) scale(584.538 578.72)">
<stop offset="0.15" stop-color="#1E93FF"/>
<stop offset="0.505" stop-color="#6FD0F3"/>
<stop offset="0.82" stop-color="#FF0CFF"/>
<stop offset="1" stop-color="#034C90"/>
</radialGradient>
<radialGradient id="paint5_radial_281_31" cx="0" cy="0" r="1" gradientUnits="userSpaceOnUse" gradientTransform="translate(314.877 142.509) rotate(-140.966) scale(584.538 578.72)">
<stop offset="0.15" stop-color="#1E93FF"/>
<stop offset="0.505" stop-color="#6FD0F3"/>
<stop offset="0.82" stop-color="#FF0CFF"/>
<stop offset="1" stop-color="#034C90"/>
</radialGradient>
<radialGradient id="paint6_radial_281_31" cx="0" cy="0" r="1" gradientUnits="userSpaceOnUse" gradientTransform="translate(314.877 142.509) rotate(-140.966) scale(584.538 578.72)">
<stop offset="0.15" stop-color="#1E93FF"/>
<stop offset="0.505" stop-color="#6FD0F3"/>
<stop offset="0.82" stop-color="#FF0CFF"/>
<stop offset="1" stop-color="#034C90"/>
</radialGradient>
<radialGradient id="paint7_radial_281_31" cx="0" cy="0" r="1" gradientUnits="userSpaceOnUse" gradientTransform="translate(314.877 142.509) rotate(-140.966) scale(584.538 578.72)">
<stop offset="0.15" stop-color="#1E93FF"/>
<stop offset="0.505" stop-color="#6FD0F3"/>
<stop offset="0.82" stop-color="#FF0CFF"/>
<stop offset="1" stop-color="#034C90"/>
</radialGradient>
</defs>
</svg>
