<svg width="1600" height="709" viewBox="0 0 1600 709" fill="none" xmlns="http://www.w3.org/2000/svg">
<path fill-rule="evenodd" clip-rule="evenodd" d="M1333.67 231.752C1225.6 232.973 1124.4 241.238 1054.86 253.78C1054.85 253.782 1054.84 253.784 1054.83 253.786C1054.94 254.34 1055 254.913 1055 255.5C1055 260.194 1051.19 264 1046.5 264C1042.16 264 1038.57 260.743 1038.06 256.538C912.191 275.18 793.215 247.639 704.162 205.716C717.587 259.97 723.979 319.087 719.21 371.587C715.577 411.573 705.463 447.803 686.972 475.126C668.457 502.483 641.563 520.875 604.514 525.148C567.511 529.415 520.473 519.589 461.625 490.746C402.769 461.899 332.026 413.993 247.579 341.99C216.257 315.283 184.559 302.425 152.943 300.104C121.314 297.783 89.679 306.001 58.488 321.594C-3.92682 352.796 -64.3801 413.432 -119.115 477.666C-146.473 509.77 -172.379 542.745 -196.371 573.353L-198.415 575.961C-221.612 605.557 -243 632.845 -262.128 654.817C-281.792 677.406 -299.161 694.488 -313.728 702.657C-321.018 706.746 -327.731 708.673 -333.746 707.819C-339.811 706.957 -344.97 703.297 -349.179 696.644L-347.489 695.575C-343.51 701.864 -338.811 705.079 -333.464 705.839C-328.068 706.605 -321.816 704.9 -314.707 700.913C-300.475 692.932 -283.306 676.098 -263.636 653.504C-244.546 631.574 -223.188 604.325 -199.977 574.711L-197.945 572.12C-173.955 541.514 -148.025 508.508 -120.638 476.368C-65.8828 412.112 -5.20883 351.201 57.5937 319.805C89.0112 304.099 121.008 295.755 153.089 298.11C185.182 300.465 217.274 313.521 248.877 340.468C333.249 412.407 403.851 460.201 462.505 488.95C521.169 517.703 567.807 527.368 604.285 523.161C640.715 518.96 667.105 500.913 685.316 474.005C703.55 447.062 713.603 411.201 717.218 371.406C722.011 318.637 715.47 259.1 701.825 204.609C687.615 197.84 674.182 190.707 661.619 183.342C614.14 155.506 579.018 124.306 561.504 96.803C552.751 83.0567 548.329 70.1285 549.082 58.9487C549.841 47.6932 555.837 38.3611 567.551 31.8891C577.246 26.532 587.183 25.3708 597.083 27.7776C606.956 30.178 616.736 36.1121 626.198 44.8484C645.112 62.3133 662.942 91.152 677.907 126.196C687.886 149.566 696.609 175.737 703.535 203.208C792.51 245.412 911.825 273.281 1038.06 254.517C1038.54 250.286 1042.14 247 1046.5 247C1049.9 247 1052.83 248.991 1054.19 251.869C1054.29 251.85 1054.4 251.831 1054.51 251.812C1124 239.277 1225.03 231.01 1332.95 229.76C1258.51 20.7916 1260.08 -308.682 1449.67 -802.05L1451.54 -801.333C1261.83 -307.666 1260.62 21.426 1335.07 229.736C1450.19 228.501 1572.96 235.258 1673.58 253.336C1722.5 262.125 1766.22 273.596 1801.29 288.145C1836.35 302.684 1862.88 320.346 1877.29 341.591C1891.75 362.919 1893.89 387.742 1880.41 416.292C1866.95 444.77 1837.95 476.972 1790.1 513.296C1752.18 542.09 1683.06 549.022 1608.12 524.711C1533.11 500.379 1452.1 444.713 1390.23 347.998C1368.7 314.349 1349.5 275.736 1333.67 231.752ZM1335.79 231.729C1351.52 275.311 1370.58 313.573 1391.91 346.92C1453.54 443.252 1534.18 498.623 1608.73 522.808C1683.35 547.014 1751.7 539.944 1788.9 511.703C1836.64 475.453 1865.35 443.487 1878.6 415.437C1891.82 387.459 1889.65 363.396 1875.63 342.713C1861.55 321.948 1835.44 304.475 1800.53 289.992C1765.63 275.519 1722.07 264.079 1673.23 255.304C1572.94 237.286 1450.58 230.53 1335.79 231.729ZM701.188 202.088C694.355 175.311 685.813 149.804 676.067 126.982C661.152 92.0525 643.457 63.5076 624.841 46.3179C615.537 37.727 606.05 32.016 596.61 29.721C587.197 27.4324 577.774 28.5255 568.518 33.6396C557.331 39.8205 551.786 48.5805 551.078 59.0833C550.365 69.6617 554.549 82.1579 563.191 95.7286C580.468 122.859 615.293 153.864 662.631 181.617C674.704 188.694 687.584 195.557 701.188 202.088ZM1507.45 314.223C1500.98 307.6 1501 273 1501 273C1501 273 1501 308.179 1494.55 314.223C1488.11 320.267 1468 322.838 1468 322.838C1468 322.838 1489.18 324.094 1494.55 330.614C1499.93 337.135 1501 371 1501 371C1501 371 1501.65 336.658 1507.45 330.614C1513.24 324.571 1534 322.838 1534 322.838C1534 322.838 1513.91 320.846 1507.45 314.223ZM97.2405 420.215C90.481 412.308 90.5 371 90.5 371C90.5 371 90.5 413 83.7595 420.215C77.019 427.431 56 430.5 56 430.5C56 430.5 78.139 432 83.7595 439.784C89.38 447.569 90.5 488 90.5 488C90.5 488 91.1799 447 97.2405 439.784C103.301 432.569 125 430.5 125 430.5C125 430.5 104 428.123 97.2405 420.215Z" fill="white"/>
</svg>
